<svg width="117" height="120" viewBox="0 0 117 120" fill="none" xmlns="http://www.w3.org/2000/svg">
<g clip-path="url(#clip0_3188_25456)">
<path d="M82.5389 81.4693C82.5389 81.4693 86.9795 80.9776 85.8948 74.8619C85.2639 71.3409 79.144 71.0486 69.5286 70.5361C69.0537 61.3175 74.3311 39.4184 64.9269 41.1112C62.0371 41.6247 59.7339 43.5972 58.5529 48.0787C58.5529 48.0787 52.8172 68.4303 47.4329 72.7888C40.8295 72.8663 35.8301 72.726 30.5314 72.3163C14.5785 71.0826 1.36636 84.5082 4.18759 100.252C5.79188 109.205 12.4815 116.019 21.5679 116.487C43.5122 117.619 79.584 117.026 79.584 117.026C85.2987 116.638 87.7638 116.883 88.2713 112.521C88.8532 107.574 85.5397 105.597 83.4067 105.58C86.2971 105.132 88.4569 102.36 87.8616 99.1625C86.8788 93.8655 83.9199 93.3673 83.7895 93.3905C86.7195 92.9139 87.8183 90.726 87.3822 87.2915C86.8736 81.8882 82.528 81.4712 82.528 81.4712L82.5389 81.4693Z" fill="#F7D3BF" stroke="black" stroke-width="2" stroke-linecap="round" stroke-linejoin="round"/>
<path d="M72.1601 82.554L72.4324 84.4433" stroke="black" stroke-width="2" stroke-linecap="round" stroke-linejoin="round"/>
<path d="M73.6748 93.2513L73.9364 95.1426" stroke="black" stroke-width="2" stroke-linecap="round" stroke-linejoin="round"/>
<path d="M75.1884 103.958L75.4481 105.839" stroke="black" stroke-width="2" stroke-linecap="round" stroke-linejoin="round"/>
<path d="M70.0716 70.4429L63.9063 70.4248" stroke="black" stroke-width="2" stroke-linecap="round" stroke-linejoin="round"/>
<path d="M23.5726 35.6074L27.0161 29.0051C27.5132 28.0523 28.9129 28.0655 29.383 29.026L32.6572 35.6853C32.8446 36.0676 33.2138 36.3337 33.6428 36.3972L41.1407 37.5234C42.2232 37.6852 42.6364 38.9867 41.8426 39.7247L36.3389 44.8423C36.0247 45.1355 35.8753 45.5603 35.9438 45.9782L37.1336 53.2752C37.3064 54.3263 36.1626 55.1197 35.1997 54.6136L28.5254 51.1157C28.1428 50.9172 27.684 50.9117 27.2974 51.1054L20.5329 54.4891C19.558 54.9767 18.4373 54.1654 18.6343 53.1167L20.0126 45.8402C20.0927 45.422 19.9549 44.9979 19.6486 44.6994L14.2817 39.4914C13.5075 38.7406 13.9558 37.447 15.0422 37.3033L22.5676 36.304C22.9969 36.2452 23.3737 35.9872 23.5693 35.6074L23.5726 35.6074Z" fill="#FFDD35" stroke="black" stroke-width="2" stroke-linecap="round" stroke-linejoin="round"/>
<path d="M58.2894 12.165L61.7329 5.56277C62.23 4.60994 63.6297 4.62316 64.0998 5.58367L67.374 12.2429C67.5614 12.6252 67.9306 12.8913 68.3596 12.9548L75.8575 14.081C76.94 14.2428 77.3532 15.5443 76.5594 16.2823L71.0557 21.3999C70.7415 21.6931 70.5921 22.1179 70.6606 22.5358L71.8504 29.8328C72.0232 30.8839 70.8794 31.6773 69.9165 31.1712L63.2422 27.6734C62.8596 27.4748 62.4008 27.4693 62.0142 27.663L55.2497 31.0467C54.2748 31.5343 53.1541 30.723 53.3511 29.6743L54.7294 22.3978C54.8095 21.9796 54.6717 21.5555 54.3654 21.257L48.9985 16.0491C48.2243 15.2982 48.6726 14.0046 49.759 13.8609L57.2844 12.8616C57.7137 12.8028 58.0905 12.5448 58.2861 12.165L58.2894 12.165Z" fill="#FFDD35" stroke="black" stroke-width="2" stroke-linecap="round" stroke-linejoin="round"/>
<path d="M94.4827 35.4648L97.9262 28.8626C98.4234 27.9097 99.8231 27.923 100.293 28.8835L103.567 35.5427C103.755 35.925 104.124 36.1912 104.553 36.2546L112.051 37.3808C113.133 37.5426 113.547 38.8441 112.753 39.5821L107.249 44.6997C106.935 44.9929 106.785 45.4177 106.854 45.8356L108.044 53.1326C108.217 54.1837 107.073 54.9771 106.11 54.471L99.4355 50.9732C99.053 50.7746 98.5941 50.7691 98.2075 50.9628L91.4431 54.3465C90.4682 54.8341 89.3475 54.0228 89.5444 52.9741L90.9228 45.6976C91.0029 45.2795 90.8651 44.8553 90.5587 44.5568L85.1919 39.3489C84.4176 38.598 84.8659 37.3044 85.9523 37.1607L93.4777 36.1614C93.907 36.1026 94.2839 35.8446 94.4794 35.4648L94.4827 35.4648Z" fill="#FFDD35" stroke="black" stroke-width="2" stroke-linecap="round" stroke-linejoin="round"/>
<rect x="2.81641" y="70.0918" width="23.4544" height="48.9091" rx="2.63635" fill="#FFDD35" stroke="black" stroke-width="2"/>
</g>
<defs>
<clipPath id="clip0_3188_25456">
<rect width="116.363" height="120" fill="white"/>
</clipPath>
</defs>
</svg>
