<svg width="155" height="124" viewBox="0 0 155 124" fill="none" xmlns="http://www.w3.org/2000/svg">
<path d="M149.895 12.8457H51.7725V5.696C51.7725 3.10146 49.9354 1 47.6672 1H5.10532C2.83713 1 1 3.10146 1 5.696V113.434C1 118.623 4.67426 122.826 9.21063 122.826H145.789C150.326 122.826 154 118.623 154 113.434V17.5417C154 14.9471 152.163 12.8457 149.895 12.8457Z" fill="#F3CB00" stroke="black" stroke-width="2" stroke-linecap="round" stroke-linejoin="round"/>
<path d="M51.4902 11.8535H1V35.269H51.4902V11.8535Z" fill="black" stroke="black" stroke-width="2" stroke-linecap="round" stroke-linejoin="round"/>
<path d="M5.10532 12.8457H149.895C152.163 12.8457 154 14.9472 154 17.5417V113.434C154 118.617 150.321 122.826 145.789 122.826H9.21063C4.67939 122.826 1 118.617 1 113.434V17.5417C1 14.9472 2.83713 12.8457 5.10532 12.8457Z" fill="#FFDD35" stroke="black" stroke-width="2" stroke-linecap="round" stroke-linejoin="round"/>
</svg>
