<svg width="151" height="150" viewBox="0 0 151 150" fill="none" xmlns="http://www.w3.org/2000/svg">
<path d="M75.59 148.68C116.371 148.68 149.43 115.621 149.43 74.84C149.43 34.0593 116.371 1 75.59 1C34.8093 1 1.75 34.0593 1.75 74.84C1.75 115.621 34.8093 148.68 75.59 148.68Z" fill="#FFDD35" stroke="black" stroke-width="2" stroke-linecap="round" stroke-linejoin="round"/>
<path d="M74.1797 98.8496C79.2673 98.8498 83.4092 102.992 83.4092 108.08C83.4091 113.152 79.2826 117.189 74.1797 117.189C69.0998 117.189 65.0694 113.055 65.0693 108.08C65.0693 103.089 69.1148 98.8496 74.1797 98.8496ZM75.0098 32.8799C84.3319 32.88 91.2199 35.6685 95.7656 39.7939C100.313 43.9211 102.579 49.4402 102.579 55.04C102.579 64.0548 98.4492 70.2425 91.5762 75.4043L87.1064 78.6943L87.1035 78.6973C83.1499 81.6337 80.136 84.7456 79.793 89.9102H67.6006C67.3832 88.6056 67.2998 87.2667 67.2998 85.7402C67.2998 80.5212 69.3844 74.8297 75.8369 69.9619L81.8359 65.4912C85.2825 62.9355 86.4697 59.8058 86.4697 56.46C86.4697 53.9176 85.5235 51.3891 83.5811 49.4971C81.6322 47.5988 78.7527 46.4102 75.0098 46.4102C67.2912 46.4102 63.1895 52.5116 63.1895 58.46C63.1895 59.9661 63.264 61.0248 63.3516 61.7666L48.915 61.249C48.693 59.9125 48.6094 58.5254 48.6094 57.2803C48.6094 50.6516 51.0711 44.5635 55.5723 40.1328C60.0696 35.706 66.6587 32.8799 75.0098 32.8799Z" fill="#006FB9" stroke="black" stroke-width="2"/>
</svg>
