<svg width="105" height="120" viewBox="0 0 105 120" fill="none" xmlns="http://www.w3.org/2000/svg">
<g clip-path="url(#clip0_3188_25297)">
<path d="M96.7344 23.2645H78.3671C78.7582 14.8679 78.3671 5.00206 89.032 1.22363C95.1939 3.74258 96.7344 16.9671 96.7344 23.2645Z" fill="#F0EFEF" stroke="black" stroke-width="2" stroke-linejoin="round"/>
<path d="M16.4112 85.7134H80.1333C75.2638 16.1336 85.7307 3.70863 88.1602 1.22363H29.0615C15.4373 6.19362 15.1162 57.5502 16.4112 85.7134Z" fill="white" stroke="black" stroke-width="2" stroke-linejoin="round"/>
<path d="M49.6419 18.2385C51.008 18.2385 52.1623 19.1173 52.1623 20.1581C52.1623 20.9488 52.8198 21.5894 53.631 21.5894C54.4429 21.5894 55.1004 20.9488 55.1004 20.1581C55.1004 17.9676 53.4082 16.1207 51.111 15.5564V13.6755C51.111 12.8847 50.4531 12.2441 49.6419 12.2441C48.8304 12.2441 48.1729 12.8847 48.1729 13.6755V15.5564C45.8749 16.1207 44.1838 17.9673 44.1838 20.1581C44.1838 22.7391 46.5317 24.8437 49.454 24.9311C49.4827 24.9325 49.5099 24.9393 49.5386 24.9393C50.9279 24.9393 52.0586 25.7992 52.0586 26.8579C52.0586 27.8969 50.9047 28.7761 49.5386 28.7761C48.1729 28.7761 47.0182 27.8972 47.0182 26.8579C47.0182 26.0665 46.3607 25.4262 45.5491 25.4262C44.7376 25.4262 44.0801 26.0665 44.0801 26.8579C44.0801 29.0796 45.8231 30.9473 48.1721 31.4804V32.8533C48.1721 33.644 48.8296 34.285 49.6412 34.285C50.4524 34.285 51.1103 33.644 51.1103 32.8533V31.4342C53.3552 30.8408 54.996 29.0144 54.996 26.8579C54.996 24.2765 52.6477 22.1727 49.7254 22.0853C49.6971 22.0838 49.6702 22.0767 49.6412 22.0767C48.2747 22.0767 47.1208 21.1978 47.1208 20.1578C47.1215 19.1177 48.2755 18.2385 49.6419 18.2385Z" fill="#006FB9"/>
<path d="M35.5078 47.7539H55.0996" stroke="black" stroke-width="2" stroke-linecap="round"/>
<path d="M35.5078 58.7764H55.0996" stroke="black" stroke-width="2" stroke-linecap="round"/>
<path d="M35.5078 69.7949H55.0996" stroke="black" stroke-width="2" stroke-linecap="round"/>
<path d="M82.041 52.4277C93.6613 52.4279 103.081 61.8483 103.081 73.4688C103.081 85.0891 93.6613 94.5096 82.041 94.5098C70.4206 94.5098 61.0001 85.0892 61 73.4688C61 61.8482 70.4205 52.4277 82.041 52.4277Z" fill="#D3EAFF" stroke="black" stroke-width="2"/>
<path d="M74.6953 75.9169H83.8789V64.8965" stroke="black" stroke-width="2" stroke-linecap="round" stroke-linejoin="round"/>
<path d="M37.3469 118.776V104.694H4.89809H1.22461V118.776H37.3469Z" fill="#FFDD35" stroke="black" stroke-width="2"/>
<path d="M3.67358 96.7355C5.14296 98.6946 5.10214 102.45 4.89806 104.082H31.8367V98.5722C37.2245 92.6946 36.1224 88.7763 34.8979 85.715H24.1216C24.1867 85.0911 24.2114 84.4773 24.2027 83.8783C24.1523 80.4193 22.9869 77.4565 22.0409 75.9191L31.8367 64.8987C33.6735 63.062 33.6735 60.1232 31.2245 58.164C28.7755 56.2048 26.3265 56.9395 24.4898 58.7763L15.3062 67.5226V47.7559L4.89806 58.164C2.44909 60.613 1.42869 64.8987 1.22461 66.7355V86.9395C1.22461 91.8375 1.83685 94.2865 3.67358 96.7355Z" fill="#F7D3BF"/>
<path d="M22.0409 91.8375C23.2954 89.7988 23.914 87.7058 24.1216 85.715M24.1216 85.715C24.1867 85.0911 24.2114 84.4773 24.2027 83.8783C24.1523 80.4193 22.9869 77.4565 22.0409 75.9191L31.8367 64.8987C33.6735 63.062 33.6735 60.1232 31.2245 58.164C28.7755 56.2048 26.3265 56.9395 24.4898 58.7763L11.6327 71.0212L15.3062 67.5226V47.7559C12.8572 50.2048 7.34703 55.715 4.89806 58.164C2.44909 60.613 1.42869 64.8987 1.22461 66.7355C1.22461 71.8375 1.22461 83.0212 1.22461 86.9395C1.22461 91.8375 1.83685 94.2865 3.67358 96.7355C5.14296 98.6946 5.10214 102.45 4.89806 104.082H31.8367V98.5722C37.2245 92.6946 36.1224 88.7763 34.8979 85.715H24.1216Z" stroke="black" stroke-width="2" stroke-linecap="round" stroke-linejoin="round"/>
</g>
<defs>
<clipPath id="clip0_3188_25297">
<rect width="104.081" height="120" fill="white"/>
</clipPath>
</defs>
</svg>
