<svg width="152" height="159" viewBox="0 0 152 159" fill="none" xmlns="http://www.w3.org/2000/svg">
<path d="M71.0216 74.7372L81.0718 83.5187L14.5941 152.946C12.0719 155.58 7.84454 155.77 5.09962 153.371C2.2945 150.92 2.10805 146.709 4.68547 144.017L71.0216 74.7372Z" fill="#FFDD35"/>
<path d="M79.6267 83.5833L13.852 152.277C11.7079 154.516 8.11342 154.677 5.77989 152.639C3.39524 150.555 3.23682 146.974 5.42794 144.686L71.083 76.1181L79.6267 83.5833Z" stroke="black" stroke-width="2"/>
<path d="M68 97.2305L59 89.7305L64 84.7305L72 91.2305L68 97.2305Z" fill="black"/>
<ellipse cx="40.4368" cy="39.3516" rx="40.4368" ry="39.3516" transform="matrix(0.974778 0.223178 -0.236415 0.971652 68.8613 4.26367)" fill="#F3FAFF"/>
<mask id="path-5-inside-1_3188_27499" fill="white">
<path fill-rule="evenodd" clip-rule="evenodd" d="M86.7394 101.572C115.259 108.102 143.835 90.9683 150.567 63.3031C157.298 35.6379 139.635 7.91759 111.115 1.38796C82.5959 -5.14166 54.0195 11.9921 47.2882 39.6573C40.557 67.3224 58.2198 95.0428 86.7394 101.572ZM89.6287 89.7164C111.398 94.7006 133.211 81.6221 138.349 60.505C143.487 39.3878 130.005 18.2284 108.235 13.2443C86.4659 8.26015 64.6532 21.3386 59.5151 42.4558C54.377 63.5729 67.8593 84.7323 89.6287 89.7164Z"/>
</mask>
<path fill-rule="evenodd" clip-rule="evenodd" d="M86.7394 101.572C115.259 108.102 143.835 90.9683 150.567 63.3031C157.298 35.6379 139.635 7.91759 111.115 1.38796C82.5959 -5.14166 54.0195 11.9921 47.2882 39.6573C40.557 67.3224 58.2198 95.0428 86.7394 101.572ZM89.6287 89.7164C111.398 94.7006 133.211 81.6221 138.349 60.505C143.487 39.3878 130.005 18.2284 108.235 13.2443C86.4659 8.26015 64.6532 21.3386 59.5151 42.4558C54.377 63.5729 67.8593 84.7323 89.6287 89.7164Z" fill="#FFDD35"/>
<path d="M150.567 63.3031L152.51 63.7759L150.567 63.3031ZM86.7394 101.572L86.293 103.522H86.293L86.7394 101.572ZM111.115 1.38796L111.562 -0.561591L111.115 1.38796ZM47.2882 39.6573L49.2316 40.1301L47.2882 39.6573ZM138.349 60.505L136.406 60.0321V60.0321L138.349 60.505ZM89.6287 89.7164L90.075 87.7669L89.6287 89.7164ZM59.5151 42.4558L61.4584 42.9286L59.5151 42.4558ZM148.623 62.8303C142.162 89.384 114.688 105.92 87.1857 99.6228L86.293 103.522C115.83 110.284 145.508 92.5526 152.51 63.7759L148.623 62.8303ZM110.669 3.33752C138.153 9.63002 155.079 36.2992 148.623 62.8303L152.51 63.7759C159.517 34.9767 141.117 6.20516 111.562 -0.561591L110.669 3.33752ZM49.2316 40.1301C55.6924 13.5764 83.1666 -2.95925 110.669 3.33752L111.562 -0.561591C82.0252 -7.32407 52.3466 10.4078 45.3449 39.1844L49.2316 40.1301ZM87.1857 99.6228C59.7019 93.3304 42.7762 66.6611 49.2316 40.1301L45.3449 39.1844C38.3377 67.9837 56.7378 96.7552 86.293 103.522L87.1857 99.6228ZM136.406 60.0321C131.538 80.0379 110.827 92.5182 90.075 87.7669L89.1823 91.666C111.969 96.883 134.884 83.2064 140.292 60.9778L136.406 60.0321ZM107.789 15.1939C128.523 19.9409 141.268 40.049 136.406 60.0321L140.292 60.9778C145.706 38.7265 131.487 16.516 108.682 11.2947L107.789 15.1939ZM61.4584 42.9286C66.326 22.9228 87.0366 10.4426 107.789 15.1939L108.682 11.2947C85.8952 6.07774 62.9803 19.7543 57.5718 41.9829L61.4584 42.9286ZM90.075 87.7669C69.3414 83.0198 56.5963 62.9117 61.4584 42.9286L57.5718 41.9829C52.1578 64.2342 66.3773 86.4447 89.1823 91.666L90.075 87.7669Z" fill="black" mask="url(#path-5-inside-1_3188_27499)"/>
<path d="M115.938 26.6904C127.709 32.8337 132.914 46.1952 128.865 58.096" stroke="black" stroke-width="2"/>
</svg>
