<svg width="122" height="120" viewBox="0 0 122 120" fill="none" xmlns="http://www.w3.org/2000/svg">
<g clip-path="url(#clip0_3188_25259)">
<path d="M97.1413 8.09342V27.6172V83.8077V112.855C97.1413 117.808 93.9667 119.046 92.3794 119.046H6.18925C2.37974 119.046 1.1099 114.919 0.951172 112.855V8.09342C0.951172 2.76009 4.44322 1.42676 6.18925 1.42676H92.3794C96.9508 1.42676 97.4587 5.8712 97.1413 8.09342Z" fill="white"/>
<path d="M49.5866 16.2993C51.2394 16.2993 52.6359 17.3626 52.6359 18.6218C52.6359 19.5785 53.4314 20.3535 54.4129 20.3535C55.3952 20.3535 56.1907 19.5785 56.1907 18.6218C56.1907 15.9716 54.1433 13.737 51.364 13.0543L51.364 10.7786C51.364 9.82192 50.568 9.04687 49.5866 9.04687C48.6047 9.04687 47.8092 9.82192 47.8092 10.7786L47.8092 13.0543C45.029 13.737 42.9829 15.9711 42.9829 18.6218C42.9829 21.7445 45.8236 24.2907 49.3592 24.3965C49.3939 24.3982 49.4269 24.4065 49.4616 24.4065C51.1424 24.4065 52.5105 25.4468 52.5105 26.7277C52.5105 27.9848 51.1144 29.0485 49.4616 29.0485C47.8092 29.0485 46.4122 27.9852 46.4122 26.7277C46.4122 25.7702 45.6167 24.9956 44.6348 24.9956C43.6529 24.9956 42.8574 25.7702 42.8574 26.7277C42.8574 29.4157 44.9663 31.6753 47.8083 32.3203L47.8083 33.9814C47.8083 34.9381 48.6038 35.7135 49.5857 35.7135C50.5671 35.7135 51.3631 34.9381 51.3631 33.9814L51.3631 32.2644C54.0792 31.5466 56.0643 29.3368 56.0643 26.7277C56.0643 23.6045 53.2232 21.0592 49.6876 20.9534C49.6533 20.9517 49.6208 20.943 49.5857 20.943C47.9324 20.943 46.5363 19.8797 46.5363 18.6214C46.5372 17.363 47.9333 16.2993 49.5866 16.2993Z" fill="#006FB9"/>
<path d="M30.4746 95.7139H46.665" stroke="black" stroke-width="2" stroke-linecap="round" stroke-linejoin="round"/>
<path d="M30.4746 82.3799H46.665" stroke="black" stroke-width="2" stroke-linecap="round" stroke-linejoin="round"/>
<path d="M30.4746 69.0459H46.665" stroke="black" stroke-width="2" stroke-linecap="round" stroke-linejoin="round"/>
<path d="M52.3789 95.7139H61.9027" stroke="black" stroke-width="2" stroke-linecap="round" stroke-linejoin="round"/>
<path d="M52.3789 82.3799H61.9027" stroke="black" stroke-width="2" stroke-linecap="round" stroke-linejoin="round"/>
<path d="M52.3789 69.0459H61.9027" stroke="black" stroke-width="2" stroke-linecap="round" stroke-linejoin="round"/>
<path d="M67.6172 95.7139H77.141" stroke="black" stroke-width="2" stroke-linecap="round" stroke-linejoin="round"/>
<path d="M67.6172 82.3799H77.141" stroke="black" stroke-width="2" stroke-linecap="round" stroke-linejoin="round"/>
<path d="M67.6172 69.0459H73.3315" stroke="black" stroke-width="2" stroke-linecap="round" stroke-linejoin="round"/>
<path d="M15.2363 110H83.8075" stroke="black" stroke-width="2" stroke-linecap="round" stroke-linejoin="round"/>
<path d="M87.1406 36.7139C97.3709 36.7139 105.665 45.0071 105.665 55.2373C105.665 65.4677 97.371 73.7617 87.1406 73.7617C76.9104 73.7616 68.6172 65.4676 68.6172 55.2373C68.6174 45.0072 76.9105 36.714 87.1406 36.7139Z" fill="#D3EAFF" stroke="black" stroke-width="2"/>
<path d="M111.2 83.6657L97.4044 71.306C101.508 68.8682 103.698 65.357 104.281 63.9061L118.57 76.7242C120.543 78.5578 121.508 81.4768 119.307 83.8448C117.107 86.2128 113.667 85.9578 111.2 83.6657Z" fill="black" stroke="black" stroke-width="2" stroke-linecap="round" stroke-linejoin="round"/>
<mask id="path-15-inside-1_3188_25259" fill="white">
<rect x="17.1426" y="46.1895" width="46.6665" height="10.4762" rx="1.90476"/>
</mask>
<rect x="17.1426" y="46.1895" width="46.6665" height="10.4762" rx="1.90476" fill="#FFDD35" stroke="black" stroke-width="4" stroke-linejoin="round" mask="url(#path-15-inside-1_3188_25259)"/>
<path d="M97.1413 27.1417V7.61784C97.1413 4.7607 97.9052 0.951186 92.3794 0.951176C87.808 0.951167 33.0145 0.951176 6.18925 0.951176C4.44322 0.951176 0.951172 2.28451 0.951172 7.61784C0.951172 12.9512 0.951172 79.6813 0.951172 112.38C0.951172 115.713 2.37974 118.57 6.18925 118.57C9.99875 118.57 65.2366 118.57 92.3794 118.57C93.9667 118.57 97.1413 117.332 97.1413 112.38C97.1413 107.427 97.1413 89.0464 97.1413 83.3321" stroke="black" stroke-width="2" stroke-linecap="round" stroke-linejoin="round"/>
<ellipse cx="19.9997" cy="69.0476" rx="2.85713" ry="2.85714" fill="black"/>
<ellipse cx="19.9997" cy="82.3806" rx="2.85713" ry="2.85714" fill="black"/>
<ellipse cx="19.9997" cy="95.7136" rx="2.85713" ry="2.85714" fill="black"/>
<path d="M83.8066 49.5228C83.8066 47.618 85.2352 46.1895 87.6161 46.1895C89.7325 46.1895 91.4257 47.9394 91.4257 49.999C91.4257 51.4275 90.6959 52.7448 88.5685 53.8085C87.6161 54.2847 87.14 54.7609 87.14 56.6656C87.14 58.5704 87.14 58.2529 87.14 58.5704" stroke="black" stroke-width="2" stroke-linecap="round" stroke-linejoin="round"/>
<ellipse cx="87.0316" cy="63.2952" rx="1.31868" ry="1.31868" fill="black"/>
</g>
<defs>
<clipPath id="clip0_3188_25259">
<rect width="121.904" height="120" fill="white"/>
</clipPath>
</defs>
</svg>
