<svg width="214" height="128" viewBox="0 0 214 128" fill="none" xmlns="http://www.w3.org/2000/svg">
<g clip-path="url(#clip0_6134_20411)">
<rect width="198.596" height="120" rx="11.228" fill="#F3FAFF"/>
<g clip-path="url(#clip1_6134_20411)">
<rect x="17.4863" y="38.75" width="51.8348" height="66.2498" rx="11.228" fill="white"/>
<mask id="mask0_6134_20411" style="mask-type:alpha" maskUnits="userSpaceOnUse" x="17" y="38" width="115" height="147">
<rect x="18.1881" y="39.4518" width="112.258" height="144.221" rx="12.6315" fill="white"/>
<rect x="18.1881" y="39.4518" width="112.258" height="144.221" rx="12.6315" stroke="black" stroke-width="1.40351"/>
</mask>
<g mask="url(#mask0_6134_20411)">
<path d="M41.2522 88.8027C41.2522 88.8027 47.378 88.9776 48.685 89.208C54.7421 90.2782 62.9438 91.7165 66.5183 104.564C74.8245 134.417 81.875 156.427 81.875 156.427H66.5183C66.5183 156.427 56.2676 126.55 50.8548 111.054" fill="#FFDD35"/>
<path d="M41.2522 88.8027C41.2522 88.8027 47.378 88.9776 48.685 89.208C54.7421 90.2782 62.9438 91.7165 66.5183 104.564C74.8245 134.417 81.875 156.427 81.875 156.427H66.5183C66.5183 156.427 56.2676 126.55 50.8548 111.054" stroke="black" stroke-width="0.7" stroke-linecap="round" stroke-linejoin="round"/>
<path d="M66.0706 146.355C63.0632 133.929 61.5185 120.176 61.3495 104.311C61.2624 96.1368 54.5557 89.4854 46.4048 89.4854H36.0623C27.9034 89.4854 21.1994 96.1394 21.1149 104.317C20.9512 120.165 19.3247 133.905 16.143 146.321C15.9582 147.044 16.1113 147.796 16.5655 148.384C17.017 148.969 17.7008 149.306 18.4401 149.306H63.7655C64.4995 149.306 65.1781 148.975 65.6297 148.397C66.0838 147.817 66.2449 147.073 66.0706 146.355Z" fill="#FFDD35"/>
<path d="M21.3777 104.319C21.2245 119.183 19.7485 133.309 16.3979 146.387C16.0546 147.73 17.058 149.039 18.4415 149.039H63.7643C65.1346 149.039 66.138 147.751 65.8132 146.413C62.6447 133.325 61.2427 119.188 61.0842 104.312" stroke="black" stroke-width="2" stroke-linecap="round" stroke-linejoin="round"/>
<path d="M40.6547 89.0674C40.6547 89.0674 34.5289 89.2422 33.2219 89.4727C27.1648 90.5428 21.5988 92.4898 17.1787 98.8154C-0.720648 124.436 0.0318708 156.692 0.0318708 156.692H15.3885C17.5537 138.512 20.9545 121.8 27.2123 109.57" fill="#FFDD35"/>
<path d="M40.6547 89.0674C40.6547 89.0674 34.5289 89.2422 33.2219 89.4727C27.1648 90.5428 21.5988 92.4898 17.1787 98.8154C-0.720648 124.436 0.0318708 156.692 0.0318708 156.692H15.3885C17.5537 138.512 20.9545 121.8 27.2123 109.57" stroke="black" stroke-width="0.7" stroke-linecap="round" stroke-linejoin="round"/>
<g clip-path="url(#clip2_6134_20411)">
<path d="M48.2409 82.638C48.2409 82.638 53.1996 82.8605 56.5926 78.8262C56.5926 78.8262 55.8744 82.1903 56.5477 84.2803C57.221 86.3703 59.1538 89.1437 60.0436 90.6774C60.2759 91.0748 60.2548 91.5701 59.9961 91.9516L59.6079 92.5211C59.3148 92.9476 58.6996 92.9793 58.3643 92.5847L56.9068 90.8602L56.9464 93.7475C56.9517 94.2376 56.5926 94.6508 56.1067 94.7117C53.8809 94.9952 48.0297 95.1912 47.8105 89.496L48.2409 82.638Z" fill="#D3EAFF" stroke="black" stroke-width="0.7" stroke-linecap="round" stroke-linejoin="round"/>
<path d="M54.2249 94.8229C50.9508 92.076 51.4287 83.7451 51.4287 83.7451" stroke="black" stroke-width="0.7" stroke-linecap="round" stroke-linejoin="round"/>
<path d="M57.3739 67.8705C56.484 66.6732 55.787 65.3355 55.3566 63.9051C53.9862 59.3516 49.7774 56.0352 44.7923 56.0352C39.4243 56.0352 35.0544 60.4218 34.0616 65.513C33.9983 65.513 31.7777 66.1938 31.4925 68.5857C31.2575 70.5539 32.4589 71.9446 33.7501 72.4849V89.2791H33.7765C33.7765 89.348 33.7659 89.4142 33.7659 89.4831C33.7659 93.5597 37.0585 96.8656 41.1274 96.8656C45.1963 96.8656 48.4889 93.5624 48.4889 89.4831C48.4889 89.4142 48.4809 89.348 48.4783 89.2791H48.5047V85.5521H48.5232C54.6199 85.5521 59.5601 80.5959 59.5601 74.4796C59.5601 72.0028 58.7469 69.7142 57.3739 67.8705Z" fill="#F7D3BF" stroke="black" stroke-width="0.7" stroke-linecap="round" stroke-linejoin="round"/>
<path d="M48.5228 85.555C45.679 85.555 43.0861 84.4743 41.127 82.7021" stroke="black" stroke-width="0.7" stroke-linecap="round" stroke-linejoin="round"/>
<path d="M37.2433 69.8602L32.9395 68.4404" stroke="black" stroke-width="0.7" stroke-linecap="round" stroke-linejoin="round"/>
<path d="M48.2143 91.3193C44.3832 90.3981 43.0547 87.6008 40.9531 82.8428C44.2715 85.0558 46.2499 85.6543 48.4621 85.6543C48.63 87.0926 48.4783 90.2597 48.2143 91.3193Z" fill="black"/>
<path d="M50.248 67.627L50.7009 69.4512C50.8928 70.2248 51.4531 70.8406 52.1861 71.1523C52.6659 71.3563 53.0496 71.7758 53.184 72.3223C53.4142 73.246 52.8501 74.1812 51.929 74.4083" stroke="black" stroke-width="0.7" stroke-linecap="round" stroke-linejoin="round"/>
<path d="M54.6403 69.9488C55.0061 69.8565 55.2177 69.4425 55.1127 69.024C55.0077 68.6056 54.626 68.3412 54.2601 68.4335C53.8943 68.5258 53.6827 68.9398 53.7877 69.3583C53.8927 69.7767 54.2744 70.0411 54.6403 69.9488Z" fill="black"/>
<path d="M47.0641 71.8599C47.43 71.7676 47.6415 71.3536 47.5365 70.9351C47.4316 70.5167 47.0499 70.2523 46.684 70.3446C46.3181 70.4369 46.1066 70.8509 46.2115 71.2694C46.3165 71.6878 46.6982 71.9522 47.0641 71.8599Z" fill="black"/>
<path d="M52.0423 77.4657C52.0423 77.4657 49.95 78.5481 48.3457 76.416" stroke="black" stroke-width="0.7" stroke-linecap="round" stroke-linejoin="round"/>
<path d="M53.1484 66.8635C54.0465 66.4825 54.8601 66.5518 55.6046 66.9905" stroke="black" stroke-width="0.7" stroke-linecap="round" stroke-linejoin="round"/>
<path d="M46.8571 67.6748C45.8823 67.6787 45.1647 68.0635 44.6504 68.764" stroke="black" stroke-width="0.7" stroke-linecap="round" stroke-linejoin="round"/>
<path d="M53.9789 60.9753C53.2237 59.1026 50.108 54.2073 42.2765 54.112C36.8241 54.0458 31.7334 58.9807 31.4614 59.2694C31.1894 59.5582 25.193 65.3461 24.8287 77.1867C24.8287 77.1867 23.6062 93.1067 25.6551 98.0734C25.8426 98.5291 26.4684 98.5847 26.7298 98.1635L27.411 96.5371C27.5589 96.1848 28.0843 96.3013 28.0685 96.6828C27.9866 98.7277 28.2586 101.398 30.2521 101.22C33.4602 100.937 32.8582 94.1239 32.8582 94.1239C33.0008 94.9689 32.1954 100.285 39.0737 99.5939C39.0737 99.5939 42.9815 99.8297 41.3049 91.8803C41.3049 91.8803 38.1179 76.2622 37.9859 73.6239C37.9542 72.9723 37.9674 72.1935 38.007 71.4174C37.2624 72.318 36.1032 72.861 34.82 72.7471C33.0034 72.5855 31.5485 71.0571 31.464 69.2294C31.3663 67.1023 33.0562 65.3461 35.1553 65.3461C37.2545 65.3461 38.8519 67.0069 38.8519 69.0545C38.8519 69.1711 38.844 69.285 38.8334 69.3963C38.9734 69.5128 39.1476 69.5764 39.3747 69.5446C39.3747 69.5446 41.6059 68.7208 42.2792 65.1871C42.5828 63.5925 42.8442 59.7118 45.8622 58.5118C50.5437 56.6497 54.2482 61.6482 53.9736 60.9727L53.9789 60.9753Z" fill="#D3EAFF" stroke="black" stroke-width="0.7" stroke-linecap="round" stroke-linejoin="round"/>
<path d="M33.0583 80.4609C31.8886 86.0608 32.8814 94.381 32.8814 94.381" stroke="black" stroke-width="0.7" stroke-linecap="round" stroke-linejoin="round"/>
<path d="M47.3083 58.0511C47.3083 58.0511 45.3253 55.7545 41.2617 55.5293L47.3083 58.0511Z" fill="#D3EAFF"/>
<path d="M47.3083 58.0511C47.3083 58.0511 45.3253 55.7545 41.2617 55.5293" stroke="black" stroke-width="0.7" stroke-linecap="round" stroke-linejoin="round"/>
</g>
</g>
</g>
<rect x="18.1881" y="39.4518" width="50.4313" height="64.8463" rx="10.5263" stroke="black" stroke-width="1.40351"/>
<path d="M1 21.1787C66.3839 27.1547 132.212 27.1526 197.596 21.1787V11.2285C197.596 5.57981 193.017 1.00013 187.368 1H11.2275C5.57897 1.00026 1 5.57988 1 11.2285V21.1787Z" fill="#9CD7FF" stroke="black" stroke-width="2"/>
<line x1="83.6602" y1="41.5" x2="113.921" y2="41.5" stroke="black" stroke-width="2" stroke-linecap="round"/>
<line x1="83.6602" y1="66.1641" x2="113.921" y2="66.1641" stroke="black" stroke-width="2" stroke-linecap="round"/>
<line x1="83.4355" y1="100.981" x2="103.781" y2="100.981" stroke="black" stroke-width="2" stroke-linecap="round"/>
<line x1="141.959" y1="101.117" x2="162.304" y2="101.117" stroke="black" stroke-width="2" stroke-linecap="round"/>
<mask id="path-33-inside-1_6134_20411" fill="white">
<ellipse cx="85.2465" cy="50.8755" rx="1.36956" ry="1.37062"/>
</mask>
<ellipse cx="85.2465" cy="50.8755" rx="1.36956" ry="1.37062" fill="#006FB9"/>
<path d="M86.6161 50.8755H84.6161C84.6161 50.5294 84.8969 50.2461 85.2465 50.2461V52.2461V54.2461C87.1089 54.2461 88.6161 52.7356 88.6161 50.8755H86.6161ZM85.2465 52.2461V50.2461C85.5962 50.2461 85.877 50.5294 85.877 50.8755H83.877H81.877C81.877 52.7356 83.3841 54.2461 85.2465 54.2461V52.2461ZM83.877 50.8755H85.877C85.877 51.2216 85.5962 51.5049 85.2465 51.5049V49.5049V47.5049C83.3841 47.5049 81.877 49.0154 81.877 50.8755H83.877ZM85.2465 49.5049V51.5049C84.8969 51.5049 84.6161 51.2216 84.6161 50.8755H86.6161H88.6161C88.6161 49.0154 87.1089 47.5049 85.2465 47.5049V49.5049Z" fill="black" mask="url(#path-33-inside-1_6134_20411)"/>
<mask id="path-35-inside-2_6134_20411" fill="white">
<ellipse cx="85.2465" cy="75.5396" rx="1.36956" ry="1.37062"/>
</mask>
<ellipse cx="85.2465" cy="75.5396" rx="1.36956" ry="1.37062" fill="#006FB9"/>
<path d="M86.6161 75.5396H84.6161C84.6161 75.1934 84.8969 74.9102 85.2465 74.9102V76.9102V78.9102C87.1089 78.9102 88.6161 77.3997 88.6161 75.5396H86.6161ZM85.2465 76.9102V74.9102C85.5962 74.9102 85.877 75.1934 85.877 75.5396H83.877H81.877C81.877 77.3997 83.3841 78.9102 85.2465 78.9102V76.9102ZM83.877 75.5396H85.877C85.877 75.8857 85.5962 76.1689 85.2465 76.1689V74.1689V72.1689C83.3841 72.1689 81.877 73.6795 81.877 75.5396H83.877ZM85.2465 74.1689V76.1689C84.8969 76.1689 84.6161 75.8857 84.6161 75.5396H86.6161H88.6161C88.6161 73.6795 87.1089 72.1689 85.2465 72.1689V74.1689Z" fill="black" mask="url(#path-35-inside-2_6134_20411)"/>
<mask id="path-37-inside-3_6134_20411" fill="white">
<ellipse cx="126.899" cy="75.5396" rx="1.36956" ry="1.37062"/>
</mask>
<ellipse cx="126.899" cy="75.5396" rx="1.36956" ry="1.37062" fill="#006FB9"/>
<path d="M128.268 75.5396H126.268C126.268 75.1934 126.549 74.9102 126.899 74.9102V76.9102V78.9102C128.761 78.9102 130.268 77.3997 130.268 75.5396H128.268ZM126.899 76.9102V74.9102C127.248 74.9102 127.529 75.1934 127.529 75.5396H125.529H123.529C123.529 77.3997 125.036 78.9102 126.899 78.9102V76.9102ZM125.529 75.5396H127.529C127.529 75.8857 127.248 76.1689 126.899 76.1689V74.1689V72.1689C125.036 72.1689 123.529 73.6795 123.529 75.5396H125.529ZM126.899 74.1689V76.1689C126.549 76.1689 126.268 75.8857 126.268 75.5396H128.268H130.268C130.268 73.6795 128.761 72.1689 126.899 72.1689V74.1689Z" fill="black" mask="url(#path-37-inside-3_6134_20411)"/>
<mask id="path-39-inside-4_6134_20411" fill="white">
<ellipse cx="116.258" cy="101.754" rx="1.36956" ry="1.37062"/>
</mask>
<ellipse cx="116.258" cy="101.754" rx="1.36956" ry="1.37062" fill="#006FB9"/>
<path d="M117.628 101.754H115.628C115.628 101.408 115.909 101.125 116.258 101.125V103.125V105.125C118.121 105.125 119.628 103.614 119.628 101.754H117.628ZM116.258 103.125V101.125C116.608 101.125 116.889 101.408 116.889 101.754H114.889H112.889C112.889 103.614 114.396 105.125 116.258 105.125V103.125ZM114.889 101.754H116.889C116.889 102.101 116.608 102.384 116.258 102.384V100.384V98.3838C114.396 98.3838 112.889 99.8943 112.889 101.754H114.889ZM116.258 100.384V102.384C115.909 102.384 115.628 102.101 115.628 101.754H117.628H119.628C119.628 99.8943 118.121 98.3838 116.258 98.3838V100.384Z" fill="black" mask="url(#path-39-inside-4_6134_20411)"/>
<mask id="path-41-inside-5_6134_20411" fill="white">
<ellipse cx="172.123" cy="101.754" rx="1.36956" ry="1.37062"/>
</mask>
<ellipse cx="172.123" cy="101.754" rx="1.36956" ry="1.37062" fill="#006FB9"/>
<path d="M173.493 101.754H171.493C171.493 101.408 171.774 101.125 172.123 101.125V103.125V105.125C173.986 105.125 175.493 103.614 175.493 101.754H173.493ZM172.123 103.125V101.125C172.473 101.125 172.754 101.408 172.754 101.754H170.754H168.754C168.754 103.614 170.261 105.125 172.123 105.125V103.125ZM170.754 101.754H172.754C172.754 102.101 172.473 102.384 172.123 102.384V100.384V98.3838C170.261 98.3838 168.754 99.8943 168.754 101.754H170.754ZM172.123 100.384V102.384C171.774 102.384 171.493 102.101 171.493 101.754H173.493H175.493C175.493 99.8943 173.986 98.3838 172.123 98.3838V100.384Z" fill="black" mask="url(#path-41-inside-5_6134_20411)"/>
<mask id="path-43-inside-6_6134_20411" fill="white">
<ellipse cx="95.5942" cy="50.8755" rx="1.36956" ry="1.37062"/>
</mask>
<ellipse cx="95.5942" cy="50.8755" rx="1.36956" ry="1.37062" fill="#006FB9"/>
<path d="M96.9637 50.8755H94.9637C94.9637 50.5294 95.2445 50.2461 95.5942 50.2461V52.2461V54.2461C97.4566 54.2461 98.9637 52.7356 98.9637 50.8755H96.9637ZM95.5942 52.2461V50.2461C95.9438 50.2461 96.2246 50.5294 96.2246 50.8755H94.2246H92.2246C92.2246 52.7356 93.7318 54.2461 95.5942 54.2461V52.2461ZM94.2246 50.8755H96.2246C96.2246 51.2216 95.9438 51.5049 95.5942 51.5049V49.5049V47.5049C93.7318 47.5049 92.2246 49.0154 92.2246 50.8755H94.2246ZM95.5942 49.5049V51.5049C95.2445 51.5049 94.9637 51.2216 94.9637 50.8755H96.9637H98.9637C98.9637 49.0154 97.4566 47.5049 95.5942 47.5049V49.5049Z" fill="black" mask="url(#path-43-inside-6_6134_20411)"/>
<mask id="path-45-inside-7_6134_20411" fill="white">
<ellipse cx="95.5942" cy="75.5396" rx="1.36956" ry="1.37062"/>
</mask>
<ellipse cx="95.5942" cy="75.5396" rx="1.36956" ry="1.37062" fill="#006FB9"/>
<path d="M96.9637 75.5396H94.9637C94.9637 75.1934 95.2445 74.9102 95.5942 74.9102V76.9102V78.9102C97.4566 78.9102 98.9637 77.3997 98.9637 75.5396H96.9637ZM95.5942 76.9102V74.9102C95.9438 74.9102 96.2246 75.1934 96.2246 75.5396H94.2246H92.2246C92.2246 77.3997 93.7318 78.9102 95.5942 78.9102V76.9102ZM94.2246 75.5396H96.2246C96.2246 75.8857 95.9438 76.1689 95.5942 76.1689V74.1689V72.1689C93.7318 72.1689 92.2246 73.6795 92.2246 75.5396H94.2246ZM95.5942 74.1689V76.1689C95.2445 76.1689 94.9637 75.8857 94.9637 75.5396H96.9637H98.9637C98.9637 73.6795 97.4566 72.1689 95.5942 72.1689V74.1689Z" fill="black" mask="url(#path-45-inside-7_6134_20411)"/>
<mask id="path-47-inside-8_6134_20411" fill="white">
<ellipse cx="105.942" cy="50.8755" rx="1.36956" ry="1.37062"/>
</mask>
<ellipse cx="105.942" cy="50.8755" rx="1.36956" ry="1.37062" fill="#006FB9"/>
<path d="M107.311 50.8755H105.311C105.311 50.5294 105.592 50.2461 105.942 50.2461V52.2461V54.2461C107.804 54.2461 109.311 52.7356 109.311 50.8755H107.311ZM105.942 52.2461V50.2461C106.291 50.2461 106.572 50.5294 106.572 50.8755H104.572H102.572C102.572 52.7356 104.079 54.2461 105.942 54.2461V52.2461ZM104.572 50.8755H106.572C106.572 51.2216 106.291 51.5049 105.942 51.5049V49.5049V47.5049C104.079 47.5049 102.572 49.0154 102.572 50.8755H104.572ZM105.942 49.5049V51.5049C105.592 51.5049 105.311 51.2216 105.311 50.8755H107.311H109.311C109.311 49.0154 107.804 47.5049 105.942 47.5049V49.5049Z" fill="black" mask="url(#path-47-inside-8_6134_20411)"/>
<mask id="path-49-inside-9_6134_20411" fill="white">
<ellipse cx="105.942" cy="75.5396" rx="1.36956" ry="1.37062"/>
</mask>
<ellipse cx="105.942" cy="75.5396" rx="1.36956" ry="1.37062" fill="#006FB9"/>
<path d="M107.311 75.5396H105.311C105.311 75.1934 105.592 74.9102 105.942 74.9102V76.9102V78.9102C107.804 78.9102 109.311 77.3997 109.311 75.5396H107.311ZM105.942 76.9102V74.9102C106.291 74.9102 106.572 75.1934 106.572 75.5396H104.572H102.572C102.572 77.3997 104.079 78.9102 105.942 78.9102V76.9102ZM104.572 75.5396H106.572C106.572 75.8857 106.291 76.1689 105.942 76.1689V74.1689V72.1689C104.079 72.1689 102.572 73.6795 102.572 75.5396H104.572ZM105.942 74.1689V76.1689C105.592 76.1689 105.311 75.8857 105.311 75.5396H107.311H109.311C109.311 73.6795 107.804 72.1689 105.942 72.1689V74.1689Z" fill="black" mask="url(#path-49-inside-9_6134_20411)"/>
<mask id="path-51-inside-10_6134_20411" fill="white">
<ellipse cx="116.289" cy="50.8755" rx="1.36956" ry="1.37062"/>
</mask>
<ellipse cx="116.289" cy="50.8755" rx="1.36956" ry="1.37062" fill="#006FB9"/>
<path d="M117.659 50.8755H115.659C115.659 50.5294 115.94 50.2461 116.289 50.2461V52.2461V54.2461C118.152 54.2461 119.659 52.7356 119.659 50.8755H117.659ZM116.289 52.2461V50.2461C116.639 50.2461 116.92 50.5294 116.92 50.8755H114.92H112.92C112.92 52.7356 114.427 54.2461 116.289 54.2461V52.2461ZM114.92 50.8755H116.92C116.92 51.2216 116.639 51.5049 116.289 51.5049V49.5049V47.5049C114.427 47.5049 112.92 49.0154 112.92 50.8755H114.92ZM116.289 49.5049V51.5049C115.94 51.5049 115.659 51.2216 115.659 50.8755H117.659H119.659C119.659 49.0154 118.152 47.5049 116.289 47.5049V49.5049Z" fill="black" mask="url(#path-51-inside-10_6134_20411)"/>
<mask id="path-53-inside-11_6134_20411" fill="white">
<ellipse cx="116.289" cy="75.5396" rx="1.36956" ry="1.37062"/>
</mask>
<ellipse cx="116.289" cy="75.5396" rx="1.36956" ry="1.37062" fill="#006FB9"/>
<path d="M117.659 75.5396H115.659C115.659 75.1934 115.94 74.9102 116.289 74.9102V76.9102V78.9102C118.152 78.9102 119.659 77.3997 119.659 75.5396H117.659ZM116.289 76.9102V74.9102C116.639 74.9102 116.92 75.1934 116.92 75.5396H114.92H112.92C112.92 77.3997 114.427 78.9102 116.289 78.9102V76.9102ZM114.92 75.5396H116.92C116.92 75.8857 116.639 76.1689 116.289 76.1689V74.1689V72.1689C114.427 72.1689 112.92 73.6795 112.92 75.5396H114.92ZM116.289 74.1689V76.1689C115.94 76.1689 115.659 75.8857 115.659 75.5396H117.659H119.659C119.659 73.6795 118.152 72.1689 116.289 72.1689V74.1689Z" fill="black" mask="url(#path-53-inside-11_6134_20411)"/>
<mask id="path-55-inside-12_6134_20411" fill="white">
<ellipse cx="126.637" cy="50.8755" rx="1.36956" ry="1.37062"/>
</mask>
<ellipse cx="126.637" cy="50.8755" rx="1.36956" ry="1.37062" fill="#006FB9"/>
<path d="M128.007 50.8755H126.007C126.007 50.5294 126.288 50.2461 126.637 50.2461V52.2461V54.2461C128.5 54.2461 130.007 52.7356 130.007 50.8755H128.007ZM126.637 52.2461V50.2461C126.987 50.2461 127.268 50.5294 127.268 50.8755H125.268H123.268C123.268 52.7356 124.775 54.2461 126.637 54.2461V52.2461ZM125.268 50.8755H127.268C127.268 51.2216 126.987 51.5049 126.637 51.5049V49.5049V47.5049C124.775 47.5049 123.268 49.0154 123.268 50.8755H125.268ZM126.637 49.5049V51.5049C126.288 51.5049 126.007 51.2216 126.007 50.8755H128.007H130.007C130.007 49.0154 128.5 47.5049 126.637 47.5049V49.5049Z" fill="black" mask="url(#path-55-inside-12_6134_20411)"/>
<mask id="path-57-inside-13_6134_20411" fill="white">
<ellipse cx="136.987" cy="50.8755" rx="1.36956" ry="1.37062"/>
</mask>
<ellipse cx="136.987" cy="50.8755" rx="1.36956" ry="1.37062" fill="#006FB9"/>
<path d="M138.356 50.8755H136.356C136.356 50.5294 136.637 50.2461 136.987 50.2461V52.2461V54.2461C138.849 54.2461 140.356 52.7356 140.356 50.8755H138.356ZM136.987 52.2461V50.2461C137.336 50.2461 137.617 50.5294 137.617 50.8755H135.617H133.617C133.617 52.7356 135.124 54.2461 136.987 54.2461V52.2461ZM135.617 50.8755H137.617C137.617 51.2216 137.336 51.5049 136.987 51.5049V49.5049V47.5049C135.124 47.5049 133.617 49.0154 133.617 50.8755H135.617ZM136.987 49.5049V51.5049C136.637 51.5049 136.356 51.2216 136.356 50.8755H138.356H140.356C140.356 49.0154 138.849 47.5049 136.987 47.5049V49.5049Z" fill="black" mask="url(#path-57-inside-13_6134_20411)"/>
<mask id="path-59-inside-14_6134_20411" fill="white">
<ellipse cx="147.334" cy="50.8755" rx="1.36956" ry="1.37062"/>
</mask>
<ellipse cx="147.334" cy="50.8755" rx="1.36956" ry="1.37062" fill="#006FB9"/>
<path d="M148.704 50.8755H146.704C146.704 50.5294 146.985 50.2461 147.334 50.2461V52.2461V54.2461C149.197 54.2461 150.704 52.7356 150.704 50.8755H148.704ZM147.334 52.2461V50.2461C147.684 50.2461 147.965 50.5294 147.965 50.8755H145.965H143.965C143.965 52.7356 145.472 54.2461 147.334 54.2461V52.2461ZM145.965 50.8755H147.965C147.965 51.2216 147.684 51.5049 147.334 51.5049V49.5049V47.5049C145.472 47.5049 143.965 49.0154 143.965 50.8755H145.965ZM147.334 49.5049V51.5049C146.985 51.5049 146.704 51.2216 146.704 50.8755H148.704H150.704C150.704 49.0154 149.197 47.5049 147.334 47.5049V49.5049Z" fill="black" mask="url(#path-59-inside-14_6134_20411)"/>
<mask id="path-61-inside-15_6134_20411" fill="white">
<ellipse cx="90.4203" cy="50.8755" rx="1.36956" ry="1.37062"/>
</mask>
<ellipse cx="90.4203" cy="50.8755" rx="1.36956" ry="1.37062" fill="#006FB9"/>
<path d="M91.7899 50.8755H89.7899C89.7899 50.5294 90.0707 50.2461 90.4203 50.2461V52.2461V54.2461C92.2828 54.2461 93.7899 52.7356 93.7899 50.8755H91.7899ZM90.4203 52.2461V50.2461C90.77 50.2461 91.0508 50.5294 91.0508 50.8755H89.0508H87.0508C87.0508 52.7356 88.5579 54.2461 90.4203 54.2461V52.2461ZM89.0508 50.8755H91.0508C91.0508 51.2216 90.77 51.5049 90.4203 51.5049V49.5049V47.5049C88.5579 47.5049 87.0508 49.0154 87.0508 50.8755H89.0508ZM90.4203 49.5049V51.5049C90.0707 51.5049 89.7899 51.2216 89.7899 50.8755H91.7899H93.7899C93.7899 49.0154 92.2828 47.5049 90.4203 47.5049V49.5049Z" fill="black" mask="url(#path-61-inside-15_6134_20411)"/>
<mask id="path-63-inside-16_6134_20411" fill="white">
<ellipse cx="90.4203" cy="75.5396" rx="1.36956" ry="1.37062"/>
</mask>
<ellipse cx="90.4203" cy="75.5396" rx="1.36956" ry="1.37062" fill="#006FB9"/>
<path d="M91.7899 75.5396H89.7899C89.7899 75.1934 90.0707 74.9102 90.4203 74.9102V76.9102V78.9102C92.2828 78.9102 93.7899 77.3997 93.7899 75.5396H91.7899ZM90.4203 76.9102V74.9102C90.77 74.9102 91.0508 75.1934 91.0508 75.5396H89.0508H87.0508C87.0508 77.3997 88.5579 78.9102 90.4203 78.9102V76.9102ZM89.0508 75.5396H91.0508C91.0508 75.8857 90.77 76.1689 90.4203 76.1689V74.1689V72.1689C88.5579 72.1689 87.0508 73.6795 87.0508 75.5396H89.0508ZM90.4203 74.1689V76.1689C90.0707 76.1689 89.7899 75.8857 89.7899 75.5396H91.7899H93.7899C93.7899 73.6795 92.2828 72.1689 90.4203 72.1689V74.1689Z" fill="black" mask="url(#path-63-inside-16_6134_20411)"/>
<mask id="path-65-inside-17_6134_20411" fill="white">
<ellipse cx="132.075" cy="75.5396" rx="1.36956" ry="1.37062"/>
</mask>
<ellipse cx="132.075" cy="75.5396" rx="1.36956" ry="1.37062" fill="#006FB9"/>
<path d="M133.444 75.5396H131.444C131.444 75.1934 131.725 74.9102 132.075 74.9102V76.9102V78.9102C133.937 78.9102 135.444 77.3997 135.444 75.5396H133.444ZM132.075 76.9102V74.9102C132.424 74.9102 132.705 75.1934 132.705 75.5396H130.705H128.705C128.705 77.3997 130.212 78.9102 132.075 78.9102V76.9102ZM130.705 75.5396H132.705C132.705 75.8857 132.424 76.1689 132.075 76.1689V74.1689V72.1689C130.212 72.1689 128.705 73.6795 128.705 75.5396H130.705ZM132.075 74.1689V76.1689C131.725 76.1689 131.444 75.8857 131.444 75.5396H133.444H135.444C135.444 73.6795 133.937 72.1689 132.075 72.1689V74.1689Z" fill="black" mask="url(#path-65-inside-17_6134_20411)"/>
<mask id="path-67-inside-18_6134_20411" fill="white">
<ellipse cx="121.436" cy="101.754" rx="1.36956" ry="1.37062"/>
</mask>
<ellipse cx="121.436" cy="101.754" rx="1.36956" ry="1.37062" fill="#006FB9"/>
<path d="M122.806 101.754H120.806C120.806 101.408 121.086 101.125 121.436 101.125V103.125V105.125C123.298 105.125 124.806 103.614 124.806 101.754H122.806ZM121.436 103.125V101.125C121.786 101.125 122.066 101.408 122.066 101.754H120.066H118.066C118.066 103.614 119.574 105.125 121.436 105.125V103.125ZM120.066 101.754H122.066C122.066 102.101 121.786 102.384 121.436 102.384V100.384V98.3838C119.574 98.3838 118.066 99.8943 118.066 101.754H120.066ZM121.436 100.384V102.384C121.086 102.384 120.806 102.101 120.806 101.754H122.806H124.806C124.806 99.8943 123.298 98.3838 121.436 98.3838V100.384Z" fill="black" mask="url(#path-67-inside-18_6134_20411)"/>
<mask id="path-69-inside-19_6134_20411" fill="white">
<ellipse cx="177.297" cy="101.754" rx="1.36956" ry="1.37062"/>
</mask>
<ellipse cx="177.297" cy="101.754" rx="1.36956" ry="1.37062" fill="#006FB9"/>
<path d="M178.667 101.754H176.667C176.667 101.408 176.948 101.125 177.297 101.125V103.125V105.125C179.16 105.125 180.667 103.614 180.667 101.754H178.667ZM177.297 103.125V101.125C177.647 101.125 177.928 101.408 177.928 101.754H175.928H173.928C173.928 103.614 175.435 105.125 177.297 105.125V103.125ZM175.928 101.754H177.928C177.928 102.101 177.647 102.384 177.297 102.384V100.384V98.3838C175.435 98.3838 173.928 99.8943 173.928 101.754H175.928ZM177.297 100.384V102.384C176.948 102.384 176.667 102.101 176.667 101.754H178.667H180.667C180.667 99.8943 179.16 98.3838 177.297 98.3838V100.384Z" fill="black" mask="url(#path-69-inside-19_6134_20411)"/>
<mask id="path-71-inside-20_6134_20411" fill="white">
<ellipse cx="100.77" cy="50.8755" rx="1.36956" ry="1.37062"/>
</mask>
<ellipse cx="100.77" cy="50.8755" rx="1.36956" ry="1.37062" fill="#006FB9"/>
<path d="M102.14 50.8755H100.14C100.14 50.5294 100.42 50.2461 100.77 50.2461V52.2461V54.2461C102.632 54.2461 104.14 52.7356 104.14 50.8755H102.14ZM100.77 52.2461V50.2461C101.12 50.2461 101.4 50.5294 101.4 50.8755H99.4004H97.4004C97.4004 52.7356 98.9075 54.2461 100.77 54.2461V52.2461ZM99.4004 50.8755H101.4C101.4 51.2216 101.12 51.5049 100.77 51.5049V49.5049V47.5049C98.9075 47.5049 97.4004 49.0154 97.4004 50.8755H99.4004ZM100.77 49.5049V51.5049C100.42 51.5049 100.14 51.2216 100.14 50.8755H102.14H104.14C104.14 49.0154 102.632 47.5049 100.77 47.5049V49.5049Z" fill="black" mask="url(#path-71-inside-20_6134_20411)"/>
<mask id="path-73-inside-21_6134_20411" fill="white">
<ellipse cx="100.77" cy="75.5396" rx="1.36956" ry="1.37062"/>
</mask>
<ellipse cx="100.77" cy="75.5396" rx="1.36956" ry="1.37062" fill="#006FB9"/>
<path d="M102.14 75.5396H100.14C100.14 75.1934 100.42 74.9102 100.77 74.9102V76.9102V78.9102C102.632 78.9102 104.14 77.3997 104.14 75.5396H102.14ZM100.77 76.9102V74.9102C101.12 74.9102 101.4 75.1934 101.4 75.5396H99.4004H97.4004C97.4004 77.3997 98.9075 78.9102 100.77 78.9102V76.9102ZM99.4004 75.5396H101.4C101.4 75.8857 101.12 76.1689 100.77 76.1689V74.1689V72.1689C98.9075 72.1689 97.4004 73.6795 97.4004 75.5396H99.4004ZM100.77 74.1689V76.1689C100.42 76.1689 100.14 75.8857 100.14 75.5396H102.14H104.14C104.14 73.6795 102.632 72.1689 100.77 72.1689V74.1689Z" fill="black" mask="url(#path-73-inside-21_6134_20411)"/>
<mask id="path-75-inside-22_6134_20411" fill="white">
<ellipse cx="111.118" cy="50.8755" rx="1.36956" ry="1.37062"/>
</mask>
<ellipse cx="111.118" cy="50.8755" rx="1.36956" ry="1.37062" fill="#006FB9"/>
<path d="M112.487 50.8755H110.487C110.487 50.5294 110.768 50.2461 111.118 50.2461V52.2461V54.2461C112.98 54.2461 114.487 52.7356 114.487 50.8755H112.487ZM111.118 52.2461V50.2461C111.467 50.2461 111.748 50.5294 111.748 50.8755H109.748H107.748C107.748 52.7356 109.255 54.2461 111.118 54.2461V52.2461ZM109.748 50.8755H111.748C111.748 51.2216 111.467 51.5049 111.118 51.5049V49.5049V47.5049C109.255 47.5049 107.748 49.0154 107.748 50.8755H109.748ZM111.118 49.5049V51.5049C110.768 51.5049 110.487 51.2216 110.487 50.8755H112.487H114.487C114.487 49.0154 112.98 47.5049 111.118 47.5049V49.5049Z" fill="black" mask="url(#path-75-inside-22_6134_20411)"/>
<mask id="path-77-inside-23_6134_20411" fill="white">
<ellipse cx="111.118" cy="75.5396" rx="1.36956" ry="1.37062"/>
</mask>
<ellipse cx="111.118" cy="75.5396" rx="1.36956" ry="1.37062" fill="#006FB9"/>
<path d="M112.487 75.5396H110.487C110.487 75.1934 110.768 74.9102 111.118 74.9102V76.9102V78.9102C112.98 78.9102 114.487 77.3997 114.487 75.5396H112.487ZM111.118 76.9102V74.9102C111.467 74.9102 111.748 75.1934 111.748 75.5396H109.748H107.748C107.748 77.3997 109.255 78.9102 111.118 78.9102V76.9102ZM109.748 75.5396H111.748C111.748 75.8857 111.467 76.1689 111.118 76.1689V74.1689V72.1689C109.255 72.1689 107.748 73.6795 107.748 75.5396H109.748ZM111.118 74.1689V76.1689C110.768 76.1689 110.487 75.8857 110.487 75.5396H112.487H114.487C114.487 73.6795 112.98 72.1689 111.118 72.1689V74.1689Z" fill="black" mask="url(#path-77-inside-23_6134_20411)"/>
<mask id="path-79-inside-24_6134_20411" fill="white">
<ellipse cx="121.463" cy="50.8755" rx="1.36956" ry="1.37062"/>
</mask>
<ellipse cx="121.463" cy="50.8755" rx="1.36956" ry="1.37062" fill="#006FB9"/>
<path d="M122.833 50.8755H120.833C120.833 50.5294 121.114 50.2461 121.463 50.2461V52.2461V54.2461C123.326 54.2461 124.833 52.7356 124.833 50.8755H122.833ZM121.463 52.2461V50.2461C121.813 50.2461 122.094 50.5294 122.094 50.8755H120.094H118.094C118.094 52.7356 119.601 54.2461 121.463 54.2461V52.2461ZM120.094 50.8755H122.094C122.094 51.2216 121.813 51.5049 121.463 51.5049V49.5049V47.5049C119.601 47.5049 118.094 49.0154 118.094 50.8755H120.094ZM121.463 49.5049V51.5049C121.114 51.5049 120.833 51.2216 120.833 50.8755H122.833H124.833C124.833 49.0154 123.326 47.5049 121.463 47.5049V49.5049Z" fill="black" mask="url(#path-79-inside-24_6134_20411)"/>
<mask id="path-81-inside-25_6134_20411" fill="white">
<ellipse cx="121.463" cy="75.5396" rx="1.36956" ry="1.37062"/>
</mask>
<ellipse cx="121.463" cy="75.5396" rx="1.36956" ry="1.37062" fill="#006FB9"/>
<path d="M122.833 75.5396H120.833C120.833 75.1934 121.114 74.9102 121.463 74.9102V76.9102V78.9102C123.326 78.9102 124.833 77.3997 124.833 75.5396H122.833ZM121.463 76.9102V74.9102C121.813 74.9102 122.094 75.1934 122.094 75.5396H120.094H118.094C118.094 77.3997 119.601 78.9102 121.463 78.9102V76.9102ZM120.094 75.5396H122.094C122.094 75.8857 121.813 76.1689 121.463 76.1689V74.1689V72.1689C119.601 72.1689 118.094 73.6795 118.094 75.5396H120.094ZM121.463 74.1689V76.1689C121.114 76.1689 120.833 75.8857 120.833 75.5396H122.833H124.833C124.833 73.6795 123.326 72.1689 121.463 72.1689V74.1689Z" fill="black" mask="url(#path-81-inside-25_6134_20411)"/>
<mask id="path-83-inside-26_6134_20411" fill="white">
<ellipse cx="131.813" cy="50.8755" rx="1.36956" ry="1.37062"/>
</mask>
<ellipse cx="131.813" cy="50.8755" rx="1.36956" ry="1.37062" fill="#006FB9"/>
<path d="M133.182 50.8755H131.182C131.182 50.5294 131.463 50.2461 131.813 50.2461V52.2461V54.2461C133.675 54.2461 135.182 52.7356 135.182 50.8755H133.182ZM131.813 52.2461V50.2461C132.163 50.2461 132.443 50.5294 132.443 50.8755H130.443H128.443C128.443 52.7356 129.951 54.2461 131.813 54.2461V52.2461ZM130.443 50.8755H132.443C132.443 51.2216 132.163 51.5049 131.813 51.5049V49.5049V47.5049C129.951 47.5049 128.443 49.0154 128.443 50.8755H130.443ZM131.813 49.5049V51.5049C131.463 51.5049 131.182 51.2216 131.182 50.8755H133.182H135.182C135.182 49.0154 133.675 47.5049 131.813 47.5049V49.5049Z" fill="black" mask="url(#path-83-inside-26_6134_20411)"/>
<mask id="path-85-inside-27_6134_20411" fill="white">
<ellipse cx="142.159" cy="50.8755" rx="1.36956" ry="1.37062"/>
</mask>
<ellipse cx="142.159" cy="50.8755" rx="1.36956" ry="1.37062" fill="#006FB9"/>
<path d="M143.528 50.8755H141.528C141.528 50.5294 141.809 50.2461 142.159 50.2461V52.2461V54.2461C144.021 54.2461 145.528 52.7356 145.528 50.8755H143.528ZM142.159 52.2461V50.2461C142.508 50.2461 142.789 50.5294 142.789 50.8755H140.789H138.789C138.789 52.7356 140.296 54.2461 142.159 54.2461V52.2461ZM140.789 50.8755H142.789C142.789 51.2216 142.508 51.5049 142.159 51.5049V49.5049V47.5049C140.296 47.5049 138.789 49.0154 138.789 50.8755H140.789ZM142.159 49.5049V51.5049C141.809 51.5049 141.528 51.2216 141.528 50.8755H143.528H145.528C145.528 49.0154 144.021 47.5049 142.159 47.5049V49.5049Z" fill="black" mask="url(#path-85-inside-27_6134_20411)"/>
<mask id="path-87-inside-28_6134_20411" fill="white">
<ellipse cx="152.506" cy="50.8755" rx="1.36956" ry="1.37062"/>
</mask>
<ellipse cx="152.506" cy="50.8755" rx="1.36956" ry="1.37062" fill="#006FB9"/>
<path d="M153.876 50.8755H151.876C151.876 50.5294 152.157 50.2461 152.506 50.2461V52.2461V54.2461C154.369 54.2461 155.876 52.7356 155.876 50.8755H153.876ZM152.506 52.2461V50.2461C152.856 50.2461 153.137 50.5294 153.137 50.8755H151.137H149.137C149.137 52.7356 150.644 54.2461 152.506 54.2461V52.2461ZM151.137 50.8755H153.137C153.137 51.2216 152.856 51.5049 152.506 51.5049V49.5049V47.5049C150.644 47.5049 149.137 49.0154 149.137 50.8755H151.137ZM152.506 49.5049V51.5049C152.157 51.5049 151.876 51.2216 151.876 50.8755H153.876H155.876C155.876 49.0154 154.369 47.5049 152.506 47.5049V49.5049Z" fill="black" mask="url(#path-87-inside-28_6134_20411)"/>
</g>
<rect x="0.701753" y="0.701753" width="197.192" height="118.596" rx="10.5263" stroke="black" stroke-width="1.40351"/>
<path d="M151 40C170.385 40 186 54.8277 186 73C186 91.1723 170.385 106 151 106C131.615 106 116 91.1723 116 73C116 54.8277 131.615 40 151 40Z" fill="#D3EAFF" stroke="black" stroke-width="2"/>
<path d="M195.506 123.076L170.023 101.405C177.603 97.1308 181.649 90.9744 182.724 88.4305L209.119 110.905C212.764 114.12 214.546 119.238 210.481 123.39C206.417 127.542 200.062 127.095 195.506 123.076Z" fill="black" stroke="black" stroke-width="2" stroke-linecap="round" stroke-linejoin="round"/>
<path d="M145 62.9231C145 59.5385 147.625 57 152 57C155.889 57 159 60.1096 159 63.7692C159 66.3077 157.659 68.6483 153.75 70.5385C152 71.3846 151.125 72.2308 151.125 75.6154C151.125 79 151.125 78.4359 151.125 79" stroke="black" stroke-width="2" stroke-linecap="round" stroke-linejoin="round"/>
<circle cx="150.5" cy="87.5" r="2.5" fill="black"/>
<defs>
<clipPath id="clip0_6134_20411">
<rect width="198.596" height="120" rx="11.228" fill="white"/>
</clipPath>
<clipPath id="clip1_6134_20411">
<rect x="17.4863" y="38.75" width="51.8348" height="66.2498" rx="11.228" fill="white"/>
</clipPath>
<clipPath id="clip2_6134_20411">
<rect width="42.3311" height="55.871" fill="white" transform="translate(20.0938 45.625)"/>
</clipPath>
</defs>
</svg>
