<svg width="130" height="122" viewBox="0 0 130 122" fill="none" xmlns="http://www.w3.org/2000/svg">
<path d="M64.3909 54.2107C76.1023 54.2107 85.5962 44.7167 85.5962 33.0053C85.5962 21.2938 76.1023 11.7998 64.3909 11.7998C52.6795 11.7998 43.1855 21.2938 43.1855 33.0053C43.1855 44.7167 52.6795 54.2107 64.3909 54.2107Z" fill="#FFDD35" stroke="black" stroke-width="2"/>
<path d="M63.7089 44.3519V41.6784C60.1356 41.3176 58.388 38.8527 58.1055 36.5922L60.5486 35.8228C60.7007 37.466 61.6788 39.0614 63.7089 39.4222V34.0535L63.0655 33.9231C60.4442 33.384 58.801 31.7625 58.801 29.2455C58.801 26.7285 60.8311 24.7245 63.7089 24.3636V21.6641H65.713V24.3897C68.8733 24.8027 70.1079 26.9067 70.5165 28.576L68.2039 29.4237C68.0517 28.4456 67.2779 27.1111 65.713 26.6763V31.9451L66.0999 32.0233C68.9516 32.5885 70.673 34.4882 70.673 36.8009C70.673 39.1136 68.9777 41.2958 65.713 41.6827V44.3562H63.7089V44.3519ZM63.7089 31.4799V26.5981C62.2179 26.8807 61.3441 27.8848 61.3441 29.1412C61.3441 30.2193 61.9614 31.1452 63.7089 31.4799ZM65.713 34.4621V39.4222C67.3823 39.1136 68.1517 38.1094 68.1517 36.9313C68.1517 35.8532 67.3823 34.849 65.713 34.4664V34.4621Z" fill="black"/>
<path d="M44.9585 63.5913L15.9838 81.0433C15.4205 81.3825 15.0762 81.9919 15.0762 82.6494V93.7249C15.0762 95.1955 16.6919 96.0936 17.9409 95.3174L44.9231 78.5489C45.6053 78.125 46.4816 78.1826 47.1024 78.6921L71.1448 98.4245C71.8372 98.9928 72.8348 98.9919 73.5263 98.4226L113.078 65.8526C113.848 65.2189 114.979 65.2981 115.652 66.033L121.653 72.5795C122.789 73.8187 124.856 73.0523 124.909 71.3721L125.643 48.2894C125.675 47.2798 124.902 46.4262 123.894 46.359L101.84 44.8888C100.211 44.7802 99.231 46.6622 100.255 47.9348L105.776 54.7991C106.431 55.6127 106.294 56.8043 105.473 57.4491L73.4918 82.5578C72.8132 83.0906 71.8587 83.0916 71.1791 82.5602L47.0808 63.7203C46.4685 63.2416 45.6243 63.1903 44.9585 63.5913Z" fill="#0065AE" stroke="black" stroke-width="2"/>
<path d="M16.0003 104.503L16.0143 2.87525C16.0145 1.83962 15.175 1 14.1393 1H2.88931C1.85387 1 1.01444 1.83933 1.01431 2.87477L1.00023 119.125C1.0001 120.16 1.8396 121 2.87522 121H126.624C127.66 121 128.499 120.161 128.499 119.125V108.253C128.499 107.218 127.66 106.378 126.624 106.378H17.8753C16.8397 106.378 16.0001 105.539 16.0003 104.503Z" fill="#0065AE" stroke="black" stroke-width="2"/>
</svg>
